<svg width="32" height="32" viewBox="0 0 32 32" fill="none" xmlns="http://www.w3.org/2000/svg">
<path d="M6.66675 28V6.66667C6.66675 5.93334 6.92787 5.30555 7.45008 4.78334C7.97231 4.26111 8.60008 4 9.33342 4H22.6668C23.4001 4 24.0279 4.26111 24.5501 4.78334C25.0724 5.30555 25.3334 5.93334 25.3334 6.66667V28L16.0001 24L6.66675 28Z" fill="#79747E"/>
<path d="M20.99 18.1016L21.5709 18.5186C21.1439 19.4222 20.6772 20.0876 20.1708 20.5145C19.6644 20.9514 19.1531 21.1699 18.6367 21.1699C18.3388 21.1699 18.026 21.1004 17.6983 20.9613C17.3706 20.8323 17.0429 20.6684 16.7153 20.4698C16.3876 20.2712 16.0649 20.0677 15.7471 19.8591C15.4393 19.6605 15.1414 19.4918 14.8534 19.3527C14.5754 19.2237 14.3172 19.1591 14.0789 19.1591C13.5527 19.1591 13.0413 19.3229 12.5448 19.6506L12.1724 19.0846C12.5796 18.7966 12.9916 18.5583 13.4087 18.3697C13.8357 18.1909 14.2428 18.1016 14.63 18.1016C14.9975 18.1016 15.3996 18.1662 15.8365 18.2952C16.2734 18.4243 16.7153 18.5732 17.1621 18.742C17.6089 18.9208 18.036 19.0747 18.443 19.2038C18.8502 19.3328 19.2076 19.3974 19.5154 19.3974C19.7935 19.2485 20.0467 19.0697 20.2751 18.8612C20.5035 18.6527 20.7418 18.3995 20.99 18.1016ZM16.4769 7.82434C17.2416 7.82434 17.9168 7.96336 18.5026 8.24139C19.0885 8.51942 19.58 8.89675 19.9772 9.37337C20.3843 9.84007 20.6921 10.3713 20.9006 10.9671C21.1091 11.5529 21.2134 12.1587 21.2134 12.7842C21.2134 13.4694 21.1192 14.1197 20.9304 14.7354C20.7418 15.3511 20.4538 15.9022 20.0665 16.3887C19.6893 16.8752 19.2026 17.2576 18.6069 17.5356C18.0211 17.8136 17.3309 17.9526 16.5365 17.9526C15.7422 17.9526 15.0422 17.8136 14.4364 17.5356C13.8406 17.2476 13.3442 16.8653 12.9469 16.3887C12.5498 15.9022 12.2519 15.3511 12.0533 14.7354C11.8547 14.1098 11.7554 13.4545 11.7554 12.7693C11.7554 11.8757 11.9242 11.0565 12.2618 10.3117C12.6094 9.55708 13.1307 8.95633 13.8257 8.50949C14.5308 8.05273 15.4145 7.82434 16.4769 7.82434ZM19.158 13.3949C19.158 12.7792 19.0835 12.1884 18.9345 11.6224C18.7956 11.0565 18.597 10.555 18.3388 10.1181C18.0807 9.67127 17.7679 9.31876 17.4004 9.06059C17.0429 8.80241 16.6408 8.67333 16.1939 8.67333C15.638 8.67333 15.1811 8.8471 14.8236 9.19464C14.4762 9.53224 14.218 9.97412 14.0491 10.5203C13.8903 11.0664 13.8108 11.6572 13.8108 12.2927C13.8108 12.9084 13.8804 13.5042 14.0193 14.0801C14.1683 14.6559 14.3768 15.1724 14.6449 15.6291C14.913 16.0858 15.2308 16.4483 15.5982 16.7164C15.9656 16.9746 16.3678 17.1036 16.8046 17.1036C17.3706 17.1036 17.8225 16.9299 18.16 16.5823C18.5076 16.2249 18.7608 15.7631 18.9196 15.1971C19.0786 14.6311 19.158 14.0304 19.158 13.3949Z" fill="white"/>
<path d="M19.8376 18.1016L20.4185 18.5186C19.9916 19.4222 19.5249 20.0876 19.0184 20.5145C18.512 20.9514 18.0006 21.1699 17.4843 21.1699C17.1864 21.1699 16.8736 21.1004 16.546 20.9613C16.2183 20.8323 15.8906 20.6684 15.5629 20.4698C15.2352 20.2712 14.9126 20.0677 14.5948 19.8591C14.287 19.6605 13.9891 19.4918 13.7011 19.3527C13.4231 19.2237 13.1649 19.1591 12.9266 19.1591C12.4003 19.1591 11.889 19.3229 11.3924 19.6506L11.0201 19.0846C11.4272 18.7966 11.8393 18.5583 12.2563 18.3697C12.6833 18.1909 13.0904 18.1016 13.4777 18.1016C13.845 18.1016 14.2472 18.1662 14.6841 18.2952C15.1211 18.4243 15.5629 18.5732 16.0097 18.742C16.4566 18.9208 16.8835 19.0747 17.2907 19.2038C17.6978 19.3328 18.0553 19.3974 18.3631 19.3974C18.6411 19.2485 18.8943 19.0697 19.1227 18.8612C19.3511 18.6527 19.5894 18.3995 19.8376 18.1016ZM15.3246 7.82434C16.0892 7.82434 16.7644 7.96336 17.3503 8.24139C17.9361 8.51942 18.4277 8.89675 18.8248 9.37337C19.232 9.84007 19.5398 10.3713 19.7483 10.9671C19.9568 11.5529 20.0611 12.1587 20.0611 12.7842C20.0611 13.4694 19.9667 14.1197 19.7781 14.7354C19.5894 15.3511 19.3014 15.9022 18.9142 16.3887C18.5368 16.8752 18.0503 17.2576 17.4545 17.5356C16.8686 17.8136 16.1786 17.9526 15.3842 17.9526C14.5898 17.9526 13.8897 17.8136 13.284 17.5356C12.6883 17.2476 12.1917 16.8653 11.7946 16.3887C11.3974 15.9022 11.0995 15.3511 10.9009 14.7354C10.7023 14.1098 10.603 13.4545 10.603 12.7693C10.603 11.8757 10.7718 11.0565 11.1094 10.3117C11.457 9.55708 11.9783 8.95633 12.6734 8.50949C13.3784 8.05273 14.2621 7.82434 15.3246 7.82434ZM18.0056 13.3949C18.0056 12.7792 17.9311 12.1884 17.7822 11.6224C17.6431 11.0565 17.4446 10.555 17.1864 10.1181C16.9282 9.67127 16.6154 9.31876 16.2481 9.06059C15.8906 8.80241 15.4884 8.67333 15.0416 8.67333C14.4855 8.67333 14.0288 8.8471 13.6713 9.19464C13.3237 9.53224 13.0656 9.97412 12.8968 10.5203C12.738 11.0664 12.6585 11.6572 12.6585 12.2927C12.6585 12.9084 12.7279 13.5042 12.867 14.0801C13.0159 14.6559 13.2245 15.1724 13.4926 15.6291C13.7607 16.0858 14.0785 16.4483 14.4458 16.7164C14.8132 16.9746 15.2153 17.1036 15.6523 17.1036C16.2183 17.1036 16.6701 16.9299 17.0077 16.5823C17.3553 16.2249 17.6085 15.7631 17.7673 15.1971C17.9261 14.6311 18.0056 14.0304 18.0056 13.3949Z" fill="black"/>
</svg>
