<svg width="275" height="275" viewBox="0 0 275 275" fill="none" xmlns="http://www.w3.org/2000/svg">
<path d="M57.2917 240.625V57.2917C57.2917 50.9896 59.5357 45.5946 64.0235 41.1068C68.5114 36.6189 73.9063 34.375 80.2084 34.375H194.792C201.094 34.375 206.489 36.6189 210.977 41.1068C215.465 45.5946 217.708 50.9896 217.708 57.2917V240.625L137.5 206.25L57.2917 240.625Z" fill="#79747E"/>
<path d="M180.383 155.56L185.375 159.144C181.706 166.909 177.695 172.627 173.343 176.296C168.991 180.051 164.597 181.928 160.159 181.928C157.599 181.928 154.911 181.331 152.095 180.136C149.279 179.027 146.463 177.619 143.647 175.912C140.831 174.205 138.058 172.456 135.327 170.664C132.682 168.957 130.122 167.507 127.647 166.312C125.258 165.203 123.039 164.648 120.991 164.648C116.469 164.648 112.074 166.056 107.807 168.872L104.607 164.008C108.106 161.533 111.647 159.485 115.231 157.864C118.901 156.328 122.399 155.56 125.727 155.56C128.885 155.56 132.341 156.115 136.095 157.224C139.85 158.333 143.647 159.613 147.487 161.064C151.327 162.6 154.997 163.923 158.495 165.032C161.994 166.141 165.066 166.696 167.711 166.696C170.101 165.416 172.277 163.88 174.239 162.088C176.202 160.296 178.25 158.12 180.383 155.56ZM141.599 67.24C148.17 67.24 153.973 68.4347 159.007 70.824C164.042 73.2133 168.266 76.456 171.679 80.552C175.178 84.5627 177.823 89.128 179.615 94.248C181.407 99.2827 182.303 104.488 182.303 109.864C182.303 115.752 181.493 121.341 179.871 126.632C178.25 131.923 175.775 136.659 172.447 140.84C169.205 145.021 165.023 148.307 159.903 150.696C154.869 153.085 148.938 154.28 142.111 154.28C135.285 154.28 129.269 153.085 124.063 150.696C118.943 148.221 114.677 144.936 111.263 140.84C107.85 136.659 105.29 131.923 103.583 126.632C101.877 121.256 101.023 115.624 101.023 109.736C101.023 102.056 102.474 95.016 105.375 88.616C108.362 82.1307 112.842 76.968 118.815 73.128C124.874 69.2027 132.469 67.24 141.599 67.24ZM164.639 115.112C164.639 109.821 163.999 104.744 162.719 99.88C161.525 95.016 159.818 90.7067 157.599 86.952C155.381 83.112 152.693 80.0827 149.535 77.864C146.463 75.6453 143.007 74.536 139.167 74.536C134.389 74.536 130.463 76.0293 127.391 79.016C124.405 81.9173 122.186 85.7147 120.735 90.408C119.37 95.1013 118.687 100.179 118.687 105.64C118.687 110.931 119.285 116.051 120.479 121C121.759 125.949 123.551 130.387 125.855 134.312C128.159 138.237 130.89 141.352 134.047 143.656C137.205 145.875 140.661 146.984 144.415 146.984C149.279 146.984 153.162 145.491 156.063 142.504C159.05 139.432 161.226 135.464 162.591 130.6C163.957 125.736 164.639 120.573 164.639 115.112Z" fill="white"/>
<path d="M170.48 155.56L175.472 159.144C171.803 166.909 167.792 172.627 163.44 176.296C159.088 180.051 154.693 181.928 150.256 181.928C147.696 181.928 145.008 181.331 142.192 180.136C139.376 179.027 136.56 177.619 133.744 175.912C130.928 174.205 128.155 172.456 125.424 170.664C122.779 168.957 120.219 167.507 117.744 166.312C115.355 165.203 113.136 164.648 111.088 164.648C106.565 164.648 102.171 166.056 97.904 168.872L94.704 164.008C98.2027 161.533 101.744 159.485 105.328 157.864C108.997 156.328 112.496 155.56 115.824 155.56C118.981 155.56 122.437 156.115 126.192 157.224C129.947 158.333 133.744 159.613 137.584 161.064C141.424 162.6 145.093 163.923 148.592 165.032C152.091 166.141 155.163 166.696 157.808 166.696C160.197 165.416 162.373 163.88 164.336 162.088C166.299 160.296 168.347 158.12 170.48 155.56ZM131.696 67.24C138.267 67.24 144.069 68.4347 149.104 70.824C154.139 73.2133 158.363 76.456 161.776 80.552C165.275 84.5627 167.92 89.128 169.712 94.248C171.504 99.2827 172.4 104.488 172.4 109.864C172.4 115.752 171.589 121.341 169.968 126.632C168.347 131.923 165.872 136.659 162.544 140.84C159.301 145.021 155.12 148.307 150 150.696C144.965 153.085 139.035 154.28 132.208 154.28C125.381 154.28 119.365 153.085 114.16 150.696C109.04 148.221 104.773 144.936 101.36 140.84C97.9467 136.659 95.3867 131.923 93.68 126.632C91.9733 121.256 91.12 115.624 91.12 109.736C91.12 102.056 92.5707 95.016 95.472 88.616C98.4587 82.1307 102.939 76.968 108.912 73.128C114.971 69.2027 122.565 67.24 131.696 67.24ZM154.736 115.112C154.736 109.821 154.096 104.744 152.816 99.88C151.621 95.016 149.915 90.7067 147.696 86.952C145.477 83.112 142.789 80.0827 139.632 77.864C136.56 75.6453 133.104 74.536 129.264 74.536C124.485 74.536 120.56 76.0293 117.488 79.016C114.501 81.9173 112.283 85.7147 110.832 90.408C109.467 95.1013 108.784 100.179 108.784 105.64C108.784 110.931 109.381 116.051 110.576 121C111.856 125.949 113.648 130.387 115.952 134.312C118.256 138.237 120.987 141.352 124.144 143.656C127.301 145.875 130.757 146.984 134.512 146.984C139.376 146.984 143.259 145.491 146.16 142.504C149.147 139.432 151.323 135.464 152.688 130.6C154.053 125.736 154.736 120.573 154.736 115.112Z" fill="black"/>
</svg>
